<?xml version="1.0" standalone="no"?>
<!DOCTYPE svg PUBLIC "-//W3C//DTD SVG 20010904//EN"
 "http://www.w3.org/TR/2001/REC-SVG-20010904/DTD/svg10.dtd">
<svg version="1.0" xmlns="http://www.w3.org/2000/svg"
 width="500.000000pt" height="500.000000pt" viewBox="0 0 500.000000 500.000000"
 preserveAspectRatio="xMidYMid meet">
<metadata>
Created by potrace 1.14, written by Peter Selinger 2001-2017
</metadata>
<g transform="translate(0.000000,500.000000) scale(0.100000,-0.100000)"
fill="#000000" stroke="none">
<path d="M1868 4608 l-3 -82 -150 -1 -150 0 -5 -76 -5 -76 -143 1 c-79 1 -147
-1 -152 -4 -5 -3 -10 -39 -12 -80 l-3 -75 -69 -2 c-37 -1 -71 -5 -74 -8 -4 -3
-5 -30 -4 -60 2 -71 -10 -83 -89 -84 -34 0 -63 -2 -66 -5 -3 -2 -5 -70 -5
-150 -1 -164 5 -153 -87 -154 -31 -1 -58 -6 -62 -13 -4 -7 -5 -35 -3 -62 8
-83 4 -87 -82 -87 -41 0 -74 -3 -75 -7 0 -5 -1 -107 -2 -228 l-2 -220 -75 -5
-75 -5 -1 -530 c-1 -291 0 -538 3 -547 3 -14 18 -18 76 -20 l72 -3 2 -220 c1
-121 2 -225 2 -231 1 -7 29 -10 79 -10 l77 1 0 -65 c0 -36 4 -70 8 -77 5 -7
28 -11 63 -9 81 4 84 -1 83 -147 0 -67 0 -132 0 -144 1 -22 5 -23 75 -23 86 0
86 0 86 -96 0 -59 2 -64 23 -65 12 0 45 -1 72 -2 l50 -2 3 -72 3 -72 152 -3
152 -3 3 -77 c2 -53 7 -78 15 -78 7 -1 75 -2 152 -3 l140 -2 3 -70 c2 -38 7
-72 12 -75 13 -8 1064 -5 1078 4 7 4 12 32 12 71 0 48 4 64 16 69 9 3 78 6
155 6 l140 0 -2 69 c-1 38 1 74 5 80 4 6 37 11 82 11 l75 0 -2 65 c-1 36 1 68
4 71 4 4 66 8 139 10 73 2 141 3 150 4 14 0 18 12 20 78 l3 77 73 3 72 3 1 82
c0 45 1 114 2 152 l2 70 78 3 c64 2 77 6 78 20 1 9 2 42 3 72 l1 55 73 3 c48
2 72 7 72 15 1 7 1 107 2 222 0 116 3 216 6 222 3 9 27 13 72 13 39 0 72 5 75
11 5 8 8 671 5 1076 0 8 -25 13 -77 15 l-78 3 -2 195 c-1 107 -3 209 -3 227
l0 32 -72 3 -73 3 0 72 c0 39 -3 74 -6 77 -2 3 -37 6 -76 7 -86 2 -81 -8 -80
172 0 70 -3 130 -6 134 -4 3 -30 5 -58 4 -86 -3 -89 0 -89 80 0 48 -4 69 -12
70 -7 1 -42 2 -78 2 l-65 2 -3 78 c-2 51 -7 77 -15 78 -7 0 -75 2 -152 2
l-140 2 -5 75 -5 75 -135 1 c-74 1 -143 2 -152 3 -16 1 -18 12 -18 81 l0 80
-550 0 -549 0 -3 -82z"/>
</g>
</svg>
